# xmcd
#
# Track frame offsets:
#	150
#	12301
#	34149
#	55226
#	63195
#	81859
#	98506
#	113568
#	126883
#	140237
#	171564
#
# Disc length: 2313 seconds
#
# Revision: 0
# Processed by: cddbd v1.5.2PL0 Copyright (c) Steve Scherf et al.
# Submitted via: EasyCDDAExtractor 11.1.0.1
#
DISCID=9309070b
DTITLE=Furry Lewis
DYEAR=1959
DGENRE=Blues
TTITLE0=Longing Blues
TTITLE1=John Henry
TTITLE2=I Will Turn Your Money Green
TTITLE3=Early Recording Career
TTITLE4=Pearlee Blues
TTITLE5=Judge Boushay Blues
TTITLE6=I'm Going To Brownsville
TTITLE7=The Medicine Shows
TTITLE8=Kassie Jones (Casey Jones)
TTITLE9=East St Louis Blues
TTITLE10=Unknown Track
EXTD=
EXTT0=
EXTT1=
EXTT2=
EXTT3=
EXTT4=
EXTT5=
EXTT6=
EXTT7=
EXTT8=
EXTT9=
EXTT10=
PLAYORDER=
